<svg xmlns="http://www.w3.org/2000/svg" viewBox="0 0 914.15 914.15">
  <path
    d="M570.16,266.16c167.3.25,302.73,136.07,302.49,303.37S736.58,872.27,569.28,872,266.54,736,266.79,568.65A302.93,302.93,0,0,1,570.16,266.16m0-40A342.87,342.87,0,0,0,326.92,326.92c-134.35,134.34-134.35,352.14,0,486.48s352.14,134.34,486.48,0,134.34-352.14,0-486.48A342.87,342.87,0,0,0,570.16,226.16Z"
  />
  <path
    d="M328.92,328.92C422,235.8,555.23,207.25,673,243.21a342.36,342.36,0,0,0-85.71-142.45C452.9-33.59,235.1-33.59,100.76,100.76s-134.35,352.14,0,486.48A342.24,342.24,0,0,0,243.21,673C207.25,555.23,235.8,422,328.92,328.92Z"
  />
</svg>
