<svg xmlns="http://www.w3.org/2000/svg" xmlns:xlink="http://www.w3.org/1999/xlink"><symbol id="logo" viewBox="0 0 914.15 914.15"><path d="M570.16 266.16c167.3.25 302.73 136.07 302.49 303.37S736.58 872.27 569.28 872 266.54 736 266.79 568.65a302.93 302.93 0 01303.37-302.49m0-40a342.87 342.87 0 00-243.24 100.76c-134.35 134.34-134.35 352.14 0 486.48s352.14 134.34 486.48 0 134.34-352.14 0-486.48a342.87 342.87 0 00-243.24-100.76z"/><path d="M328.92 328.92C422 235.8 555.23 207.25 673 243.21a342.36 342.36 0 00-85.71-142.45c-134.39-134.35-352.19-134.35-486.53 0s-134.35 352.14 0 486.48A342.24 342.24 0 00243.21 673c-35.96-117.77-7.41-251 85.71-344.08z"/></symbol><symbol id="moon" viewBox="0 0 24 24"><path d="M15.77 3.24a10.66 10.66 0 00-2.84-1.09 9.84 9.84 0 01-.72 14.07 9.84 9.84 0 01-8.9 2.32 10 10 0 0014.8-13.35 11 11 0 00-2.34-1.95z"/></symbol><symbol id="sun" viewBox="0 0 24 24"><path d="M3.55 18.54l1.41 1.41 1.8-1.79-1.42-1.42M11 22.45h2V19.5h-2m1-14a6 6 0 00-6 6 6 6 0 006 6 6 6 0 006-6c0-3.32-2.69-6-6-6m8 7h3v-2h-3m-2.76 7.66l1.8 1.79 1.41-1.41-1.79-1.8m1.79-12.28l-1.41-1.41-1.8 1.79 1.42 1.42M13 .55h-2V3.5h2m-9 7H1v2h3m2.76-7.66l-1.8-1.79-1.41 1.41 1.79 1.8 1.42-1.42z"/></symbol></svg>