<svg xmlns="http://www.w3.org/2000/svg" xmlns:xlink="http://www.w3.org/1999/xlink"><symbol id="logo" viewBox="0 0 914.15 914.15"><g data-name="Layer 2"><g data-name="Layer 1"><g data-name="Layer 2"><g data-name="Layer 1-2"><path d="M570.16 266.16c167.3.25 302.73 136.07 302.49 303.37S736.58 872.27 569.28 872 266.54 736 266.79 568.65a302.93 302.93 0 01303.37-302.49m0-40a342.87 342.87 0 00-243.24 100.76c-134.35 134.34-134.35 352.14 0 486.48s352.14 134.34 486.48 0 134.34-352.14 0-486.48a342.87 342.87 0 00-243.24-100.76z"/><path d="M328.92 328.92C422 235.8 555.23 207.25 673 243.21a342.36 342.36 0 00-85.71-142.45c-134.39-134.35-352.19-134.35-486.53 0s-134.35 352.14 0 486.48A342.24 342.24 0 00243.21 673c-35.96-117.77-7.41-251 85.71-344.08z"/></g></g></g></g></symbol></svg>