<svg xmlns="http://www.w3.org/2000/svg" viewBox="0 0 204.36 173.39"><polygon points="102.68 0 117.38 145.08 171.86 120.33 102.68 0" fill="#b9e3d4"/><polygon points="102.68 0 36.39 122.66 117.38 145.08 102.68 0" fill="#a6dad1"/><polygon points="104.9 21.93 109.86 32.5 110.89 22.74 115.11 28.66 115.44 22.2 102.68 0 104.9 21.93" fill="#fff"/><polygon points="93.18 17.57 95.01 24.88 98.46 18.81 101.5 30.49 104.9 21.93 102.68 0 93.18 17.57" fill="#d6d6d6"/><polygon points="71.11 21.12 86.88 158.95 145.33 135.62 71.11 21.12" fill="#81bac8"/><polyline points="71.11 21.12 0 137.84 62.49 153.15 82.41 119.98 71.11 21.12" fill="#6fa0be"/><polygon points="73.5 41.99 78.82 52.04 79.93 42.76 84.44 48.39 84.8 42.24 71.11 21.12 73.5 41.99" fill="#fff"/><polygon points="60.93 37.84 62.89 44.8 66.59 39.02 69.85 50.13 73.5 41.99 71.11 21.12 60.93 37.84" fill="#d6d6d6"/><polygon points="131.34 38.47 145.33 173.39 204.36 152.78 131.34 38.47" fill="#607da8"/><polygon points="131.34 38.47 62.48 153.18 145.33 173.39 131.34 38.47" fill="#515e91"/><polygon points="133.53 59.24 138.93 69.34 140.02 60.07 144.46 65.69 144.81 59.55 131.34 38.47 133.53 59.24" fill="#fff"/><polygon points="121.32 55.16 123.25 62.11 126.9 56.34 130.1 67.43 133.53 59.24 131.34 38.47 121.32 55.16" fill="#d6d6d6"/></svg>